<?xml version="1.0" ?><svg viewBox="0 0 64 64" xmlns="http://www.w3.org/2000/svg"><g data-name="05-twitter" id="_05-twitter"><rect height="32px" rx="6" style="fill:#55d0f2" width="32" x="1" y="1"/><path d="M57,1H7A6,6,0,0,0,1,7V17A22,22,0,0,0,23,39H41A22,22,0,0,0,63,17V7A6,6,0,0,0,57,1Z" style="fill:#61ddff"/><path d="M57,1H7A6,6,0,0,0,1,7v4A6,6,0,0,1,7,5H57a6,6,0,0,1,6,6V7A6,6,0,0,0,57,1Z" style="fill:#9ceaff"/><path d="M57,59H7a6,6,0,0,1-6-6v4a6,6,0,0,0,6,6H57a6,6,0,0,0,6-6V53A6,6,0,0,1,57,59Z" style="fill:#52aff4"/><path d="M54,21.263s-.6,4.026-3.676,5.619c0,.116,0,.233-.009.349A21.941,21.941,0,0,1,44.65,41.377a23.31,23.31,0,0,1-30.571,3.436A20.026,20.026,0,0,0,20.3,40.831a22.332,22.332,0,0,1-4.39-3.686,5.212,5.212,0,0,0,1.7-1.083,8.018,8.018,0,0,1-4.106-1.995,22.132,22.132,0,0,1-1.971-3.839A5.514,5.514,0,0,0,13.951,28.9a7.092,7.092,0,0,1-3.282-1.36A21.75,21.75,0,0,1,10,22.158a21.218,21.218,0,0,1,.284-3.508A20.3,20.3,0,0,0,26.5,26.632,11.776,11.776,0,0,1,38.417,15a12.078,12.078,0,0,1,5.756,1.449,11.864,11.864,0,0,1,4.5,4.295,10.945,10.945,0,0,0,4.409-3.06s0,3.579-1.833,4.474A4.6,4.6,0,0,0,54,21.263Z" style="fill:#fdfef9"/><path d="M15.913,37.145a5.212,5.212,0,0,0,1.7-1.083,8.018,8.018,0,0,1-4.106-1.995c-.117-.183-.215-.381-.328-.568a6.092,6.092,0,0,1-1.643.729,22.132,22.132,0,0,0,1.971,3.839,8.018,8.018,0,0,0,4.106,1.995,5.212,5.212,0,0,1-1.7,1.083,22.432,22.432,0,0,0,1.795,1.733,19.9,19.9,0,0,0,2.6-2.047A22.332,22.332,0,0,1,15.913,37.145Z" style="fill:#52aff4"/><path d="M50.324,26.882c0,.116,0,.233-.009.349A21.946,21.946,0,0,1,44.65,41.377a23.28,23.28,0,0,1-26.941,5.5,20,20,0,0,1-3.63,1.936A23.31,23.31,0,0,0,44.65,45.377a21.946,21.946,0,0,0,5.665-14.146c.009-.116.009-.233.009-.349C53.4,29.289,54,25.263,54,25.263a4.331,4.331,0,0,1-2.6.889A5.587,5.587,0,0,1,50.324,26.882Z" style="fill:#52aff4"/><path d="M13.951,28.9a7.092,7.092,0,0,1-3.282-1.36,21.639,21.639,0,0,1-.57-3.395c-.061.663-.1,1.332-.1,2.009a21.75,21.75,0,0,0,.669,5.386,8.655,8.655,0,0,0,1.99,1.046,21.439,21.439,0,0,1-1.119-2.362A5.514,5.514,0,0,0,13.951,28.9Z" style="fill:#52aff4"/></g></svg>